<svg version="1.1" xmlns="http://www.w3.org/2000/svg" xmlns:xlink="http://www.w3.org/1999/xlink" width="596" height="160" style="width: 596px; height: 160px;"><defs><clipPath id="bibqrXLkCEBZ"><path fill="none" stroke="none" d=" M 43 5 L 553 5 L 553 140 L 43 140 L 43 5 Z"/></clipPath><clipPath id="nauyxgecEIvX"><path fill="none" stroke="none" d=" M 43 5 L 553 5 L 553 140 L 43 140 L 43 5 Z"/></clipPath></defs><g><g transform="scale(1,1) translate(0.5,0.5)"><rect fill="#FFFFFF" stroke="none" x="0" y="0" width="596" height="160"/><rect fill="#ffffff" stroke="none" x="0" y="0" width="596" height="160"/><rect fill="#FFFFFF" stroke="none" x="43" y="5" width="510" height="135"/><rect fill="#ffffff" stroke="none" x="43" y="5" width="510" height="135"/><g/><g clip-path="url(#bibqrXLkCEBZ)"><g><g/><g><path fill="none" stroke="#919191" paint-order="fill stroke markers" d=" M 43 106 L 553 106" stroke-miterlimit="10"/><path fill="none" stroke="#919191" paint-order="fill stroke markers" d=" M 43 73 L 553 73" stroke-miterlimit="10"/><path fill="none" stroke="#919191" paint-order="fill stroke markers" d=" M 43 39 L 553 39" stroke-miterlimit="10"/></g><g><path fill="none" stroke="none"/><rect fill="#F8B617" stroke="none" x="48.099999999999994" y="136.270625" width="15.300000000000011" height="3.7293750000000045"/><path fill="none" stroke="#F8B617" paint-order="fill stroke markers" d=" M 48.099999999999994 136.270625 L 63.400000000000006 136.270625 L 63.400000000000006 140 L 48.099999999999994 140 L 48.099999999999994 136.270625 Z" stroke-miterlimit="10"/><rect fill="#F8B617" stroke="none" x="73.6" y="136.18625" width="15.300000000000011" height="3.813749999999999"/><path fill="none" stroke="#F8B617" paint-order="fill stroke markers" d=" M 73.6 136.18625 L 88.9 136.18625 L 88.9 140 L 73.6 140 L 73.6 136.18625 Z" stroke-miterlimit="10"/><rect fill="#F8B617" stroke="none" x="99.1" y="136.085" width="15.300000000000011" height="3.914999999999992"/><path fill="none" stroke="#F8B617" paint-order="fill stroke markers" d=" M 99.1 136.085 L 114.4 136.085 L 114.4 140 L 99.1 140 L 99.1 136.085 Z" stroke-miterlimit="10"/><rect fill="#F8B617" stroke="none" x="124.60000000000002" y="136.05125" width="15.299999999999955" height="3.9487499999999898"/><path fill="none" stroke="#F8B617" paint-order="fill stroke markers" d=" M 124.60000000000002 136.05125 L 139.89999999999998 136.05125 L 139.89999999999998 140 L 124.60000000000002 140 L 124.60000000000002 136.05125 Z" stroke-miterlimit="10"/><rect fill="#F8B617" stroke="none" x="150.10000000000002" y="135.831875" width="15.299999999999955" height="4.168125000000003"/><path fill="none" stroke="#F8B617" paint-order="fill stroke markers" d=" M 150.10000000000002 135.831875 L 165.39999999999998 135.831875 L 165.39999999999998 140 L 150.10000000000002 140 L 150.10000000000002 135.831875 Z" stroke-miterlimit="10"/><rect fill="#F8B617" stroke="none" x="175.6" y="135.30875" width="15.300000000000011" height="4.691249999999997"/><path fill="none" stroke="#F8B617" paint-order="fill stroke markers" d=" M 175.6 135.30875 L 190.9 135.30875 L 190.9 140 L 175.6 140 L 175.6 135.30875 Z" stroke-miterlimit="10"/><rect fill="#F8B617" stroke="none" x="201.1" y="134.718125" width="15.300000000000011" height="5.281875000000014"/><path fill="none" stroke="#F8B617" paint-order="fill stroke markers" d=" M 201.1 134.718125 L 216.4 134.718125 L 216.4 140 L 201.1 140 L 201.1 134.718125 Z" stroke-miterlimit="10"/><rect fill="#F8B617" stroke="none" x="226.6" y="133.0475" width="15.300000000000011" height="6.952499999999986"/><path fill="none" stroke="#F8B617" paint-order="fill stroke markers" d=" M 226.6 133.0475 L 241.9 133.0475 L 241.9 140 L 226.6 140 L 226.6 133.0475 Z" stroke-miterlimit="10"/><rect fill="#F8B617" stroke="none" x="252.10000000000002" y="132.9125" width="15.299999999999955" height="7.087500000000006"/><path fill="none" stroke="#F8B617" paint-order="fill stroke markers" d=" M 252.10000000000002 132.9125 L 267.4 132.9125 L 267.4 140 L 252.10000000000002 140 L 252.10000000000002 132.9125 Z" stroke-miterlimit="10"/><rect fill="#F8B617" stroke="none" x="277.6" y="132.71" width="15.299999999999955" height="7.289999999999992"/><path fill="none" stroke="#F8B617" paint-order="fill stroke markers" d=" M 277.6 132.71 L 292.9 132.71 L 292.9 140 L 277.6 140 L 277.6 132.71 Z" stroke-miterlimit="10"/><rect fill="#F8B617" stroke="none" x="303.09999999999997" y="130.82" width="15.300000000000068" height="9.180000000000007"/><path fill="none" stroke="#F8B617" paint-order="fill stroke markers" d=" M 303.09999999999997 130.82 L 318.40000000000003 130.82 L 318.40000000000003 140 L 303.09999999999997 140 L 303.09999999999997 130.82 Z" stroke-miterlimit="10"/><rect fill="#F8B617" stroke="none" x="328.59999999999997" y="130.094375" width="15.300000000000068" height="9.905624999999986"/><path fill="none" stroke="#F8B617" paint-order="fill stroke markers" d=" M 328.59999999999997 130.094375 L 343.90000000000003 130.094375 L 343.90000000000003 140 L 328.59999999999997 140 L 328.59999999999997 130.094375 Z" stroke-miterlimit="10"/><rect fill="#F8B617" stroke="none" x="354.09999999999997" y="127.2425" width="15.300000000000068" height="12.757499999999993"/><path fill="none" stroke="#F8B617" paint-order="fill stroke markers" d=" M 354.09999999999997 127.2425 L 369.40000000000003 127.2425 L 369.40000000000003 140 L 354.09999999999997 140 L 354.09999999999997 127.2425 Z" stroke-miterlimit="10"/><rect fill="#F8B617" stroke="none" x="379.59999999999997" y="123.3275" width="15.300000000000068" height="16.6725"/><path fill="none" stroke="#F8B617" paint-order="fill stroke markers" d=" M 379.59999999999997 123.3275 L 394.90000000000003 123.3275 L 394.90000000000003 140 L 379.59999999999997 140 L 379.59999999999997 123.3275 Z" stroke-miterlimit="10"/><rect fill="#F8B617" stroke="none" x="405.09999999999997" y="121.656875" width="15.300000000000068" height="18.343125"/><path fill="none" stroke="#F8B617" paint-order="fill stroke markers" d=" M 405.09999999999997 121.656875 L 420.40000000000003 121.656875 L 420.40000000000003 140 L 405.09999999999997 140 L 405.09999999999997 121.656875 Z" stroke-miterlimit="10"/><rect fill="#F8B617" stroke="none" x="430.59999999999997" y="121.521875" width="15.300000000000068" height="18.478125000000006"/><path fill="none" stroke="#F8B617" paint-order="fill stroke markers" d=" M 430.59999999999997 121.521875 L 445.90000000000003 121.521875 L 445.90000000000003 140 L 430.59999999999997 140 L 430.59999999999997 121.521875 Z" stroke-miterlimit="10"/><rect fill="#F8B617" stroke="none" x="456.09999999999997" y="117.370625" width="15.300000000000068" height="22.629374999999996"/><path fill="none" stroke="#F8B617" paint-order="fill stroke markers" d=" M 456.09999999999997 117.370625 L 471.40000000000003 117.370625 L 471.40000000000003 140 L 456.09999999999997 140 L 456.09999999999997 117.370625 Z" stroke-miterlimit="10"/><rect fill="#F8B617" stroke="none" x="481.59999999999997" y="110.148125" width="15.300000000000068" height="29.851875000000007"/><path fill="none" stroke="#F8B617" paint-order="fill stroke markers" d=" M 481.59999999999997 110.148125 L 496.90000000000003 110.148125 L 496.90000000000003 140 L 481.59999999999997 140 L 481.59999999999997 110.148125 Z" stroke-miterlimit="10"/><rect fill="#F8B617" stroke="none" x="507.0999999999999" y="43.508750000000006" width="15.300000000000182" height="96.49125"/><path fill="none" stroke="#F8B617" paint-order="fill stroke markers" d=" M 507.0999999999999 43.508750000000006 L 522.4000000000001 43.508750000000006 L 522.4000000000001 140 L 507.0999999999999 140 L 507.0999999999999 43.508750000000006 Z" stroke-miterlimit="10"/><rect fill="#F8B617" stroke="none" x="532.5999999999999" y="8.25687499999998" width="15.300000000000182" height="131.74312500000002"/><path fill="none" stroke="#F8B617" paint-order="fill stroke markers" d=" M 532.5999999999999 8.25687499999998 L 547.9000000000001 8.25687499999998 L 547.9000000000001 140 L 532.5999999999999 140 L 532.5999999999999 8.25687499999998 Z" stroke-miterlimit="10"/></g></g></g><g clip-path="url(#nauyxgecEIvX)"><g/></g><g><g fill="#444444"><path fill="none" stroke="black" paint-order="fill stroke markers" d=" M 43 140 L 553 140" stroke-miterlimit="10"/><path fill="none" stroke="black" paint-order="fill stroke markers" d=" M 56 146 L 56 138" stroke-miterlimit="10" stroke-opacity="0"/><path fill="none" stroke="black" paint-order="fill stroke markers" d=" M 81 146 L 81 138" stroke-miterlimit="10" stroke-opacity="0"/><path fill="none" stroke="black" paint-order="fill stroke markers" d=" M 107 146 L 107 138" stroke-miterlimit="10" stroke-opacity="0"/><path fill="none" stroke="black" paint-order="fill stroke markers" d=" M 132 146 L 132 138" stroke-miterlimit="10" stroke-opacity="0"/><path fill="none" stroke="black" paint-order="fill stroke markers" d=" M 158 146 L 158 138" stroke-miterlimit="10" stroke-opacity="0"/><path fill="none" stroke="black" paint-order="fill stroke markers" d=" M 183 146 L 183 138" stroke-miterlimit="10" stroke-opacity="0"/><path fill="none" stroke="black" paint-order="fill stroke markers" d=" M 209 146 L 209 138" stroke-miterlimit="10" stroke-opacity="0"/><path fill="none" stroke="black" paint-order="fill stroke markers" d=" M 234 146 L 234 138" stroke-miterlimit="10" stroke-opacity="0"/><path fill="none" stroke="black" paint-order="fill stroke markers" d=" M 260 146 L 260 138" stroke-miterlimit="10" stroke-opacity="0"/><path fill="none" stroke="black" paint-order="fill stroke markers" d=" M 285 146 L 285 138" stroke-miterlimit="10" stroke-opacity="0"/><path fill="none" stroke="black" paint-order="fill stroke markers" d=" M 311 146 L 311 138" stroke-miterlimit="10" stroke-opacity="0"/><path fill="none" stroke="black" paint-order="fill stroke markers" d=" M 336 146 L 336 138" stroke-miterlimit="10" stroke-opacity="0"/><path fill="none" stroke="black" paint-order="fill stroke markers" d=" M 362 146 L 362 138" stroke-miterlimit="10" stroke-opacity="0"/><path fill="none" stroke="black" paint-order="fill stroke markers" d=" M 387 146 L 387 138" stroke-miterlimit="10" stroke-opacity="0"/><path fill="none" stroke="black" paint-order="fill stroke markers" d=" M 413 146 L 413 138" stroke-miterlimit="10" stroke-opacity="0"/><path fill="none" stroke="black" paint-order="fill stroke markers" d=" M 438 146 L 438 138" stroke-miterlimit="10" stroke-opacity="0"/><path fill="none" stroke="black" paint-order="fill stroke markers" d=" M 464 146 L 464 138" stroke-miterlimit="10" stroke-opacity="0"/><path fill="none" stroke="black" paint-order="fill stroke markers" d=" M 489 146 L 489 138" stroke-miterlimit="10" stroke-opacity="0"/><path fill="none" stroke="black" paint-order="fill stroke markers" d=" M 515 146 L 515 138" stroke-miterlimit="10" stroke-opacity="0"/><path fill="" stroke="black" paint-order="fill stroke markers" d=" M 540 146 L 540 138" stroke-miterlimit="10" stroke-opacity="0"/><g transform="translate(56,151) rotate(0,0,0)"><text fill="" stroke="none" font-family="Apex New" font-size="6pt" font-style="normal" font-weight="bold" text-decoration="normal" x="0" y="0" text-anchor="middle" dominant-baseline="hanging">GHA</text><g transform="rotate(0,0,0) translate(-56,-151) translate(81,151) rotate(0,0,0)"><text fill="" stroke="none" font-family="Apex New" font-size="6pt" font-style="normal" font-weight="bold" text-decoration="normal" x="0" y="0" text-anchor="middle" dominant-baseline="hanging">PRK</text><g transform="rotate(0,0,0) translate(-81,-151) translate(107,151) rotate(0,0,0)"><text fill="" stroke="none" font-family="Apex New" font-size="6pt" font-style="normal" font-weight="bold" text-decoration="normal" x="0" y="0" text-anchor="middle" dominant-baseline="hanging">SDN</text><g transform="rotate(0,0,0) translate(-107,-151) translate(132,151) rotate(0,0,0)"><text fill="" stroke="none" font-family="Apex New" font-size="6pt" font-style="normal" font-weight="bold" text-decoration="normal" x="0" y="0" text-anchor="middle" dominant-baseline="hanging">AFG</text><g transform="rotate(0,0,0) translate(-132,-151) translate(158,151) rotate(0,0,0)"><text fill="" stroke="none" font-family="Apex New" font-size="6pt" font-style="normal" font-weight="bold" text-decoration="normal" x="0" y="0" text-anchor="middle" dominant-baseline="hanging">MDG</text><g transform="rotate(0,0,0) translate(-158,-151) translate(183,151) rotate(0,0,0)"><text fill="" stroke="none" font-family="Apex New" font-size="6pt" font-style="normal" font-weight="bold" text-decoration="normal" x="0" y="0" text-anchor="middle" dominant-baseline="hanging">MOZ</text><g transform="rotate(0,0,0) translate(-183,-151) translate(209,151) rotate(0,0,0)"><text fill="" stroke="none" font-family="Apex New" font-size="6pt" font-style="normal" font-weight="bold" text-decoration="normal" x="0" y="0" text-anchor="middle" dominant-baseline="hanging">VNM</text><g transform="rotate(0,0,0) translate(-209,-151) translate(234,151) rotate(0,0,0)"><text fill="" stroke="none" font-family="Apex New" font-size="6pt" font-style="normal" font-weight="bold" text-decoration="normal" x="0" y="0" text-anchor="middle" dominant-baseline="hanging">UGA</text><g transform="rotate(0,0,0) translate(-234,-151) translate(260,151) rotate(0,0,0)"><text fill="" stroke="none" font-family="Apex New" font-size="6pt" font-style="normal" font-weight="bold" text-decoration="normal" x="0" y="0" text-anchor="middle" dominant-baseline="hanging">KEN</text><g transform="rotate(0,0,0) translate(-260,-151) translate(285,151) rotate(0,0,0)"><text fill="" stroke="none" font-family="Apex New" font-size="6pt" font-style="normal" font-weight="bold" text-decoration="normal" x="0" y="0" text-anchor="middle" dominant-baseline="hanging">MMR</text><g transform="rotate(0,0,0) translate(-285,-151) translate(311,151) rotate(0,0,0)"><text fill="" stroke="none" font-family="Apex New" font-size="6pt" font-style="normal" font-weight="bold" text-decoration="normal" x="0" y="0" text-anchor="middle" dominant-baseline="hanging">TZA</text><g transform="rotate(0,0,0) translate(-311,-151) translate(336,151) rotate(0,0,0)"><text fill="" stroke="none" font-family="Apex New" font-size="6pt" font-style="normal" font-weight="bold" text-decoration="normal" x="0" y="0" text-anchor="middle" dominant-baseline="hanging">PHL</text><g transform="rotate(0,0,0) translate(-336,-151) translate(362,151) rotate(0,0,0)"><text fill="" stroke="none" font-family="Apex New" font-size="6pt" font-style="normal" font-weight="bold" text-decoration="normal" x="0" y="0" text-anchor="middle" dominant-baseline="hanging">COD</text><g transform="rotate(0,0,0) translate(-362,-151) translate(387,151) rotate(0,0,0)"><text fill="" stroke="none" font-family="Apex New" font-size="6pt" font-style="normal" font-weight="bold" text-decoration="normal" x="0" y="0" text-anchor="middle" dominant-baseline="hanging">ETH</text><g transform="rotate(0,0,0) translate(-387,-151) translate(413,151) rotate(0,0,0)"><text fill="" stroke="none" font-family="Apex New" font-size="6pt" font-style="normal" font-weight="bold" text-decoration="normal" x="0" y="0" text-anchor="middle" dominant-baseline="hanging">IDN</text><g transform="rotate(0,0,0) translate(-413,-151) translate(438,151) rotate(0,0,0)"><text fill="" stroke="none" font-family="Apex New" font-size="6pt" font-style="normal" font-weight="bold" text-decoration="normal" x="0" y="0" text-anchor="middle" dominant-baseline="hanging">PAK</text><g transform="rotate(0,0,0) translate(-438,-151) translate(464,151) rotate(0,0,0)"><text fill="" stroke="none" font-family="Apex New" font-size="6pt" font-style="normal" font-weight="bold" text-decoration="normal" x="0" y="0" text-anchor="middle" dominant-baseline="hanging">BGD</text><g transform="rotate(0,0,0) translate(-464,-151) translate(489,151) rotate(0,0,0)"><text fill="" stroke="none" font-family="Apex New" font-size="6pt" font-style="normal" font-weight="bold" text-decoration="normal" x="0" y="0" text-anchor="middle" dominant-baseline="hanging">NGA</text><g transform="rotate(0,0,0) translate(-489,-151) translate(515,151) rotate(0,0,0)"><text fill="" stroke="none" font-family="Apex New" font-size="6pt" font-style="normal" font-weight="bold" text-decoration="normal" x="0" y="0" text-anchor="middle" dominant-baseline="hanging">CHN</text><g transform="rotate(0,0,0) translate(-515,-151) translate(540,151) rotate(0,0,0)"><text fill="" stroke="none" font-family="Apex New" font-size="6pt" font-style="normal" font-weight="bold" text-decoration="normal" x="0" y="0" text-anchor="middle" dominant-baseline="hanging">IND</text><g transform="rotate(0,0,0) translate(-540,-151)"/></g></g></g></g></g></g></g></g></g></g></g></g></g></g></g></g></g></g></g></g></g><g fill="#444444"><path fill="none" stroke="black" paint-order="fill stroke markers" d=" M 43 140 L 43 5" stroke-miterlimit="10" stroke-opacity="0"/><path fill="none" stroke="#919191" paint-order="fill stroke markers" d=" M 37 140 L 44 140" stroke-miterlimit="10"/><path fill="none" stroke="#919191" paint-order="fill stroke markers" d=" M 37 106 L 44 106" stroke-miterlimit="10"/><path fill="none" stroke="#919191" paint-order="fill stroke markers" d=" M 37 73 L 44 73" stroke-miterlimit="10"/><path fill="none" stroke="#919191" paint-order="fill stroke markers" d=" M 37 39 L 44 39" stroke-miterlimit="10"/><path fill="" stroke="#919191" paint-order="fill stroke markers" d=" M 37 5 L 44 5" stroke-miterlimit="10"/><g transform="translate(32,140) rotate(0,0,0)"><text fill="" stroke="none" font-family="Apex New" font-size="6pt" font-style="normal" font-weight="bold" text-decoration="normal" x="0" y="0" text-anchor="end" dominant-baseline="central">0</text><g transform="rotate(0,0,0) translate(-32,-140) translate(32,106) rotate(0,0,0)"><text fill="" stroke="none" font-family="Apex New" font-size="6pt" font-style="normal" font-weight="bold" text-decoration="normal" x="0" y="0" text-anchor="end" dominant-baseline="central">200</text><g transform="rotate(0,0,0) translate(-32,-106) translate(32,73) rotate(0,0,0)"><text fill="" stroke="none" font-family="Apex New" font-size="6pt" font-style="normal" font-weight="bold" text-decoration="normal" x="0" y="0" text-anchor="end" dominant-baseline="central">400</text><g transform="rotate(0,0,0) translate(-32,-73) translate(32,39) rotate(0,0,0)"><text fill="" stroke="none" font-family="Apex New" font-size="6pt" font-style="normal" font-weight="bold" text-decoration="normal" x="0" y="0" text-anchor="end" dominant-baseline="central">600</text><g transform="rotate(0,0,0) translate(-32,-39) translate(32,5) rotate(0,0,0)"><text fill="" stroke="none" font-family="Apex New" font-size="6pt" font-style="normal" font-weight="bold" text-decoration="normal" x="0" y="0" text-anchor="end" dominant-baseline="central">800</text><g transform="rotate(0,0,0) translate(-32,-5)"/></g></g></g></g></g></g></g></g></g></svg>