<svg version="1.1" xmlns="http://www.w3.org/2000/svg" xmlns:xlink="http://www.w3.org/1999/xlink" width="596" height="160" style="width: 596px; height: 160px;"><defs><clipPath id="BCgfXqORUrip"><path fill="none" stroke="none" d=" M 27 5 L 566 5 L 566 140 L 27 140 L 27 5 Z"/></clipPath><clipPath id="tdoVCzoVTorh"><path fill="none" stroke="none" d=" M 27 5 L 566 5 L 566 140 L 27 140 L 27 5 Z"/></clipPath></defs><g><g transform="scale(1,1) translate(0.5,0.5)"><rect fill="#FFFFFF" stroke="none" x="0" y="0" width="596" height="160"/><rect fill="#ffffff" stroke="none" x="0" y="0" width="596" height="160"/><rect fill="#FFFFFF" stroke="none" x="27" y="5" width="539" height="135"/><rect fill="#ffffff" stroke="none" x="27" y="5" width="539" height="135"/><g/><g clip-path="url(#BCgfXqORUrip)"><g><g/><g><path fill="none" stroke="#919191" paint-order="fill stroke markers" d=" M 27 106 L 566 106" stroke-miterlimit="10"/><path fill="none" stroke="#919191" paint-order="fill stroke markers" d=" M 27 73 L 566 73" stroke-miterlimit="10"/><path fill="none" stroke="#919191" paint-order="fill stroke markers" d=" M 27 39 L 566 39" stroke-miterlimit="10"/></g><g><path fill="none" stroke="none"/><rect fill="#F8B617" stroke="none" x="31.042500000000004" y="136.270625" width="18.864999999999995" height="3.7293750000000045"/><path fill="none" stroke="#F8B617" paint-order="fill stroke markers" d=" M 31.042500000000004 136.270625 L 49.9075 136.270625 L 49.9075 140 L 31.042500000000004 140 L 31.042500000000004 136.270625 Z" stroke-miterlimit="10"/><rect fill="#F8B617" stroke="none" x="57.99249999999999" y="136.18625" width="18.86500000000001" height="3.813749999999999"/><path fill="none" stroke="#F8B617" paint-order="fill stroke markers" d=" M 57.99249999999999 136.18625 L 76.8575 136.18625 L 76.8575 140 L 57.99249999999999 140 L 57.99249999999999 136.18625 Z" stroke-miterlimit="10"/><rect fill="#F8B617" stroke="none" x="84.9425" y="136.085" width="18.86500000000001" height="3.914999999999992"/><path fill="none" stroke="#F8B617" paint-order="fill stroke markers" d=" M 84.9425 136.085 L 103.8075 136.085 L 103.8075 140 L 84.9425 140 L 84.9425 136.085 Z" stroke-miterlimit="10"/><rect fill="#F8B617" stroke="none" x="111.89250000000001" y="136.05125" width="18.86499999999998" height="3.9487499999999898"/><path fill="none" stroke="#F8B617" paint-order="fill stroke markers" d=" M 111.89250000000001 136.05125 L 130.7575 136.05125 L 130.7575 140 L 111.89250000000001 140 L 111.89250000000001 136.05125 Z" stroke-miterlimit="10"/><rect fill="#F8B617" stroke="none" x="138.84249999999997" y="135.831875" width="18.86500000000001" height="4.168125000000003"/><path fill="none" stroke="#F8B617" paint-order="fill stroke markers" d=" M 138.84249999999997 135.831875 L 157.70749999999998 135.831875 L 157.70749999999998 140 L 138.84249999999997 140 L 138.84249999999997 135.831875 Z" stroke-miterlimit="10"/><rect fill="#F8B617" stroke="none" x="165.79250000000002" y="135.30875" width="18.864999999999952" height="4.691249999999997"/><path fill="none" stroke="#F8B617" paint-order="fill stroke markers" d=" M 165.79250000000002 135.30875 L 184.65749999999997 135.30875 L 184.65749999999997 140 L 165.79250000000002 140 L 165.79250000000002 135.30875 Z" stroke-miterlimit="10"/><rect fill="#F8B617" stroke="none" x="192.7425" y="134.718125" width="18.864999999999952" height="5.281875000000014"/><path fill="none" stroke="#F8B617" paint-order="fill stroke markers" d=" M 192.7425 134.718125 L 211.60749999999996 134.718125 L 211.60749999999996 140 L 192.7425 140 L 192.7425 134.718125 Z" stroke-miterlimit="10"/><rect fill="#F8B617" stroke="none" x="219.6925" y="133.0475" width="18.86500000000001" height="6.952499999999986"/><path fill="none" stroke="#F8B617" paint-order="fill stroke markers" d=" M 219.6925 133.0475 L 238.5575 133.0475 L 238.5575 140 L 219.6925 140 L 219.6925 133.0475 Z" stroke-miterlimit="10"/><rect fill="#F8B617" stroke="none" x="246.64249999999998" y="132.9125" width="18.86500000000001" height="7.087500000000006"/><path fill="none" stroke="#F8B617" paint-order="fill stroke markers" d=" M 246.64249999999998 132.9125 L 265.5075 132.9125 L 265.5075 140 L 246.64249999999998 140 L 246.64249999999998 132.9125 Z" stroke-miterlimit="10"/><rect fill="#F8B617" stroke="none" x="273.5925" y="132.71" width="18.86500000000001" height="7.289999999999992"/><path fill="none" stroke="#F8B617" paint-order="fill stroke markers" d=" M 273.5925 132.71 L 292.4575 132.71 L 292.4575 140 L 273.5925 140 L 273.5925 132.71 Z" stroke-miterlimit="10"/><rect fill="#F8B617" stroke="none" x="300.5425" y="130.82" width="18.864999999999895" height="9.180000000000007"/><path fill="none" stroke="#F8B617" paint-order="fill stroke markers" d=" M 300.5425 130.82 L 319.4074999999999 130.82 L 319.4074999999999 140 L 300.5425 140 L 300.5425 130.82 Z" stroke-miterlimit="10"/><rect fill="#F8B617" stroke="none" x="327.49250000000006" y="130.094375" width="18.864999999999895" height="9.905624999999986"/><path fill="none" stroke="#F8B617" paint-order="fill stroke markers" d=" M 327.49250000000006 130.094375 L 346.35749999999996 130.094375 L 346.35749999999996 140 L 327.49250000000006 140 L 327.49250000000006 130.094375 Z" stroke-miterlimit="10"/><rect fill="#F8B617" stroke="none" x="354.4425" y="127.2425" width="18.86500000000001" height="12.757499999999993"/><path fill="none" stroke="#F8B617" paint-order="fill stroke markers" d=" M 354.4425 127.2425 L 373.3075 127.2425 L 373.3075 140 L 354.4425 140 L 354.4425 127.2425 Z" stroke-miterlimit="10"/><rect fill="#F8B617" stroke="none" x="381.3925" y="123.3275" width="18.86500000000001" height="16.6725"/><path fill="none" stroke="#F8B617" paint-order="fill stroke markers" d=" M 381.3925 123.3275 L 400.2575 123.3275 L 400.2575 140 L 381.3925 140 L 381.3925 123.3275 Z" stroke-miterlimit="10"/><rect fill="#F8B617" stroke="none" x="408.3425" y="121.656875" width="18.86500000000001" height="18.343125"/><path fill="none" stroke="#F8B617" paint-order="fill stroke markers" d=" M 408.3425 121.656875 L 427.2075 121.656875 L 427.2075 140 L 408.3425 140 L 408.3425 121.656875 Z" stroke-miterlimit="10"/><rect fill="#F8B617" stroke="none" x="435.2925" y="121.521875" width="18.864999999999895" height="18.478125000000006"/><path fill="none" stroke="#F8B617" paint-order="fill stroke markers" d=" M 435.2925 121.521875 L 454.1574999999999 121.521875 L 454.1574999999999 140 L 435.2925 140 L 435.2925 121.521875 Z" stroke-miterlimit="10"/><rect fill="#F8B617" stroke="none" x="462.24249999999995" y="117.370625" width="18.865000000000123" height="22.629374999999996"/><path fill="none" stroke="#F8B617" paint-order="fill stroke markers" d=" M 462.24249999999995 117.370625 L 481.1075000000001 117.370625 L 481.1075000000001 140 L 462.24249999999995 140 L 462.24249999999995 117.370625 Z" stroke-miterlimit="10"/><rect fill="#F8B617" stroke="none" x="489.1925" y="110.148125" width="18.86500000000001" height="29.851875000000007"/><path fill="none" stroke="#F8B617" paint-order="fill stroke markers" d=" M 489.1925 110.148125 L 508.0575 110.148125 L 508.0575 140 L 489.1925 140 L 489.1925 110.148125 Z" stroke-miterlimit="10"/><rect fill="#F8B617" stroke="none" x="516.1424999999999" y="43.508750000000006" width="18.865000000000236" height="96.49125"/><path fill="none" stroke="#F8B617" paint-order="fill stroke markers" d=" M 516.1424999999999 43.508750000000006 L 535.0075000000002 43.508750000000006 L 535.0075000000002 140 L 516.1424999999999 140 L 516.1424999999999 43.508750000000006 Z" stroke-miterlimit="10"/><rect fill="#F8B617" stroke="none" x="543.0925" y="8.25687499999998" width="18.86500000000001" height="131.74312500000002"/><path fill="none" stroke="#F8B617" paint-order="fill stroke markers" d=" M 543.0925 8.25687499999998 L 561.9575 8.25687499999998 L 561.9575 140 L 543.0925 140 L 543.0925 8.25687499999998 Z" stroke-miterlimit="10"/></g></g></g><g clip-path="url(#tdoVCzoVTorh)"><g/></g><g><g fill="#444444"><path fill="none" stroke="black" paint-order="fill stroke markers" d=" M 27 140 L 566 140" stroke-miterlimit="10"/><path fill="none" stroke="black" paint-order="fill stroke markers" d=" M 40 146 L 40 138" stroke-miterlimit="10" stroke-opacity="0"/><path fill="none" stroke="black" paint-order="fill stroke markers" d=" M 67 146 L 67 138" stroke-miterlimit="10" stroke-opacity="0"/><path fill="none" stroke="black" paint-order="fill stroke markers" d=" M 94 146 L 94 138" stroke-miterlimit="10" stroke-opacity="0"/><path fill="none" stroke="black" paint-order="fill stroke markers" d=" M 121 146 L 121 138" stroke-miterlimit="10" stroke-opacity="0"/><path fill="none" stroke="black" paint-order="fill stroke markers" d=" M 148 146 L 148 138" stroke-miterlimit="10" stroke-opacity="0"/><path fill="none" stroke="black" paint-order="fill stroke markers" d=" M 175 146 L 175 138" stroke-miterlimit="10" stroke-opacity="0"/><path fill="none" stroke="black" paint-order="fill stroke markers" d=" M 202 146 L 202 138" stroke-miterlimit="10" stroke-opacity="0"/><path fill="none" stroke="black" paint-order="fill stroke markers" d=" M 229 146 L 229 138" stroke-miterlimit="10" stroke-opacity="0"/><path fill="none" stroke="black" paint-order="fill stroke markers" d=" M 256 146 L 256 138" stroke-miterlimit="10" stroke-opacity="0"/><path fill="none" stroke="black" paint-order="fill stroke markers" d=" M 283 146 L 283 138" stroke-miterlimit="10" stroke-opacity="0"/><path fill="none" stroke="black" paint-order="fill stroke markers" d=" M 310 146 L 310 138" stroke-miterlimit="10" stroke-opacity="0"/><path fill="none" stroke="black" paint-order="fill stroke markers" d=" M 337 146 L 337 138" stroke-miterlimit="10" stroke-opacity="0"/><path fill="none" stroke="black" paint-order="fill stroke markers" d=" M 364 146 L 364 138" stroke-miterlimit="10" stroke-opacity="0"/><path fill="none" stroke="black" paint-order="fill stroke markers" d=" M 391 146 L 391 138" stroke-miterlimit="10" stroke-opacity="0"/><path fill="none" stroke="black" paint-order="fill stroke markers" d=" M 418 146 L 418 138" stroke-miterlimit="10" stroke-opacity="0"/><path fill="none" stroke="black" paint-order="fill stroke markers" d=" M 445 146 L 445 138" stroke-miterlimit="10" stroke-opacity="0"/><path fill="none" stroke="black" paint-order="fill stroke markers" d=" M 472 146 L 472 138" stroke-miterlimit="10" stroke-opacity="0"/><path fill="none" stroke="black" paint-order="fill stroke markers" d=" M 499 146 L 499 138" stroke-miterlimit="10" stroke-opacity="0"/><path fill="none" stroke="black" paint-order="fill stroke markers" d=" M 526 146 L 526 138" stroke-miterlimit="10" stroke-opacity="0"/><path fill="" stroke="black" paint-order="fill stroke markers" d=" M 553 146 L 553 138" stroke-miterlimit="10" stroke-opacity="0"/><g transform="translate(40,151) rotate(0,0,0)"><text fill="" stroke="none" font-family="Apex New" font-size="6pt" font-style="normal" font-weight="bold" text-decoration="normal" x="0" y="0" text-anchor="middle" dominant-baseline="hanging">GHA</text><g transform="rotate(0,0,0) translate(-40,-151) translate(67,151) rotate(0,0,0)"><text fill="" stroke="none" font-family="Apex New" font-size="6pt" font-style="normal" font-weight="bold" text-decoration="normal" x="0" y="0" text-anchor="middle" dominant-baseline="hanging">PRK</text><g transform="rotate(0,0,0) translate(-67,-151) translate(94,151) rotate(0,0,0)"><text fill="" stroke="none" font-family="Apex New" font-size="6pt" font-style="normal" font-weight="bold" text-decoration="normal" x="0" y="0" text-anchor="middle" dominant-baseline="hanging">SDN</text><g transform="rotate(0,0,0) translate(-94,-151) translate(121,151) rotate(0,0,0)"><text fill="" stroke="none" font-family="Apex New" font-size="6pt" font-style="normal" font-weight="bold" text-decoration="normal" x="0" y="0" text-anchor="middle" dominant-baseline="hanging">AFG</text><g transform="rotate(0,0,0) translate(-121,-151) translate(148,151) rotate(0,0,0)"><text fill="" stroke="none" font-family="Apex New" font-size="6pt" font-style="normal" font-weight="bold" text-decoration="normal" x="0" y="0" text-anchor="middle" dominant-baseline="hanging">MDG</text><g transform="rotate(0,0,0) translate(-148,-151) translate(175,151) rotate(0,0,0)"><text fill="" stroke="none" font-family="Apex New" font-size="6pt" font-style="normal" font-weight="bold" text-decoration="normal" x="0" y="0" text-anchor="middle" dominant-baseline="hanging">MOZ</text><g transform="rotate(0,0,0) translate(-175,-151) translate(202,151) rotate(0,0,0)"><text fill="" stroke="none" font-family="Apex New" font-size="6pt" font-style="normal" font-weight="bold" text-decoration="normal" x="0" y="0" text-anchor="middle" dominant-baseline="hanging">VNM</text><g transform="rotate(0,0,0) translate(-202,-151) translate(229,151) rotate(0,0,0)"><text fill="" stroke="none" font-family="Apex New" font-size="6pt" font-style="normal" font-weight="bold" text-decoration="normal" x="0" y="0" text-anchor="middle" dominant-baseline="hanging">UGA</text><g transform="rotate(0,0,0) translate(-229,-151) translate(256,151) rotate(0,0,0)"><text fill="" stroke="none" font-family="Apex New" font-size="6pt" font-style="normal" font-weight="bold" text-decoration="normal" x="0" y="0" text-anchor="middle" dominant-baseline="hanging">KEN</text><g transform="rotate(0,0,0) translate(-256,-151) translate(283,151) rotate(0,0,0)"><text fill="" stroke="none" font-family="Apex New" font-size="6pt" font-style="normal" font-weight="bold" text-decoration="normal" x="0" y="0" text-anchor="middle" dominant-baseline="hanging">MMR</text><g transform="rotate(0,0,0) translate(-283,-151) translate(310,151) rotate(0,0,0)"><text fill="" stroke="none" font-family="Apex New" font-size="6pt" font-style="normal" font-weight="bold" text-decoration="normal" x="0" y="0" text-anchor="middle" dominant-baseline="hanging">TZA</text><g transform="rotate(0,0,0) translate(-310,-151) translate(337,151) rotate(0,0,0)"><text fill="" stroke="none" font-family="Apex New" font-size="6pt" font-style="normal" font-weight="bold" text-decoration="normal" x="0" y="0" text-anchor="middle" dominant-baseline="hanging">PHL</text><g transform="rotate(0,0,0) translate(-337,-151) translate(364,151) rotate(0,0,0)"><text fill="" stroke="none" font-family="Apex New" font-size="6pt" font-style="normal" font-weight="bold" text-decoration="normal" x="0" y="0" text-anchor="middle" dominant-baseline="hanging">COD</text><g transform="rotate(0,0,0) translate(-364,-151) translate(391,151) rotate(0,0,0)"><text fill="" stroke="none" font-family="Apex New" font-size="6pt" font-style="normal" font-weight="bold" text-decoration="normal" x="0" y="0" text-anchor="middle" dominant-baseline="hanging">ETH</text><g transform="rotate(0,0,0) translate(-391,-151) translate(418,151) rotate(0,0,0)"><text fill="" stroke="none" font-family="Apex New" font-size="6pt" font-style="normal" font-weight="bold" text-decoration="normal" x="0" y="0" text-anchor="middle" dominant-baseline="hanging">IDN</text><g transform="rotate(0,0,0) translate(-418,-151) translate(445,151) rotate(0,0,0)"><text fill="" stroke="none" font-family="Apex New" font-size="6pt" font-style="normal" font-weight="bold" text-decoration="normal" x="0" y="0" text-anchor="middle" dominant-baseline="hanging">PAK</text><g transform="rotate(0,0,0) translate(-445,-151) translate(472,151) rotate(0,0,0)"><text fill="" stroke="none" font-family="Apex New" font-size="6pt" font-style="normal" font-weight="bold" text-decoration="normal" x="0" y="0" text-anchor="middle" dominant-baseline="hanging">BGD</text><g transform="rotate(0,0,0) translate(-472,-151) translate(499,151) rotate(0,0,0)"><text fill="" stroke="none" font-family="Apex New" font-size="6pt" font-style="normal" font-weight="bold" text-decoration="normal" x="0" y="0" text-anchor="middle" dominant-baseline="hanging">NGA</text><g transform="rotate(0,0,0) translate(-499,-151) translate(526,151) rotate(0,0,0)"><text fill="" stroke="none" font-family="Apex New" font-size="6pt" font-style="normal" font-weight="bold" text-decoration="normal" x="0" y="0" text-anchor="middle" dominant-baseline="hanging">CHN</text><g transform="rotate(0,0,0) translate(-526,-151) translate(553,151) rotate(0,0,0)"><text fill="" stroke="none" font-family="Apex New" font-size="6pt" font-style="normal" font-weight="bold" text-decoration="normal" x="0" y="0" text-anchor="middle" dominant-baseline="hanging">IND</text><g transform="rotate(0,0,0) translate(-553,-151)"/></g></g></g></g></g></g></g></g></g></g></g></g></g></g></g></g></g></g></g></g></g><g fill="#444444"><path fill="none" stroke="black" paint-order="fill stroke markers" d=" M 27 140 L 27 5" stroke-miterlimit="10" stroke-opacity="0"/><path fill="none" stroke="#919191" paint-order="fill stroke markers" d=" M 21 140 L 28 140" stroke-miterlimit="10"/><path fill="none" stroke="#919191" paint-order="fill stroke markers" d=" M 21 106 L 28 106" stroke-miterlimit="10"/><path fill="none" stroke="#919191" paint-order="fill stroke markers" d=" M 21 73 L 28 73" stroke-miterlimit="10"/><path fill="none" stroke="#919191" paint-order="fill stroke markers" d=" M 21 39 L 28 39" stroke-miterlimit="10"/><path fill="" stroke="#919191" paint-order="fill stroke markers" d=" M 21 5 L 28 5" stroke-miterlimit="10"/><g transform="translate(16,140) rotate(0,0,0)"><text fill="" stroke="none" font-family="Apex New" font-size="6pt" font-style="normal" font-weight="bold" text-decoration="normal" x="0" y="0" text-anchor="end" dominant-baseline="central">0</text><g transform="rotate(0,0,0) translate(-16,-140) translate(16,106) rotate(0,0,0)"><text fill="" stroke="none" font-family="Apex New" font-size="6pt" font-style="normal" font-weight="bold" text-decoration="normal" x="0" y="0" text-anchor="end" dominant-baseline="central">200</text><g transform="rotate(0,0,0) translate(-16,-106) translate(16,73) rotate(0,0,0)"><text fill="" stroke="none" font-family="Apex New" font-size="6pt" font-style="normal" font-weight="bold" text-decoration="normal" x="0" y="0" text-anchor="end" dominant-baseline="central">400</text><g transform="rotate(0,0,0) translate(-16,-73) translate(16,39) rotate(0,0,0)"><text fill="" stroke="none" font-family="Apex New" font-size="6pt" font-style="normal" font-weight="bold" text-decoration="normal" x="0" y="0" text-anchor="end" dominant-baseline="central">600</text><g transform="rotate(0,0,0) translate(-16,-39) translate(16,5) rotate(0,0,0)"><text fill="" stroke="none" font-family="Apex New" font-size="6pt" font-style="normal" font-weight="bold" text-decoration="normal" x="0" y="0" text-anchor="end" dominant-baseline="central">800</text><g transform="rotate(0,0,0) translate(-16,-5)"/></g></g></g></g></g></g></g></g></g></svg>