<svg version="1.1" xmlns="http://www.w3.org/2000/svg" xmlns:xlink="http://www.w3.org/1999/xlink" width="596" height="160" style="width: 596px; height: 160px;"><defs><clipPath id="VJeHqpDWmMAM"><path fill="none" stroke="none" d=" M 26 5 L 566 5 L 566 140 L 26 140 L 26 5 Z"/></clipPath><clipPath id="KRNsIugVFnbG"><path fill="none" stroke="none" d=" M 26 5 L 566 5 L 566 140 L 26 140 L 26 5 Z"/></clipPath></defs><g><g transform="scale(1,1) translate(0.5,0.5)"><rect fill="#FFFFFF" stroke="none" x="0" y="0" width="596" height="160"/><rect fill="#ffffff" stroke="none" x="0" y="0" width="596" height="160"/><rect fill="#FFFFFF" stroke="none" x="26" y="5" width="540" height="135"/><rect fill="#ffffff" stroke="none" x="26" y="5" width="540" height="135"/><g/><g clip-path="url(#VJeHqpDWmMAM)"><g><g/><g><path fill="none" stroke="#919191" paint-order="fill stroke markers" d=" M 26 106 L 566 106" stroke-miterlimit="10"/><path fill="none" stroke="#919191" paint-order="fill stroke markers" d=" M 26 73 L 566 73" stroke-miterlimit="10"/><path fill="none" stroke="#919191" paint-order="fill stroke markers" d=" M 26 39 L 566 39" stroke-miterlimit="10"/></g><g><path fill="none" stroke="none"/><rect fill="#F8B617" stroke="none" x="30.049999999999997" y="136.270625" width="18.900000000000006" height="3.7293750000000045"/><path fill="none" stroke="#F8B617" paint-order="fill stroke markers" d=" M 30.049999999999997 136.270625 L 48.95 136.270625 L 48.95 140 L 30.049999999999997 140 L 30.049999999999997 136.270625 Z" stroke-miterlimit="10"/><rect fill="#F8B617" stroke="none" x="57.05" y="136.18625" width="18.900000000000006" height="3.813749999999999"/><path fill="none" stroke="#F8B617" paint-order="fill stroke markers" d=" M 57.05 136.18625 L 75.95 136.18625 L 75.95 140 L 57.05 140 L 57.05 136.18625 Z" stroke-miterlimit="10"/><rect fill="#F8B617" stroke="none" x="84.05" y="136.085" width="18.900000000000006" height="3.914999999999992"/><path fill="none" stroke="#F8B617" paint-order="fill stroke markers" d=" M 84.05 136.085 L 102.95 136.085 L 102.95 140 L 84.05 140 L 84.05 136.085 Z" stroke-miterlimit="10"/><rect fill="#F8B617" stroke="none" x="111.05000000000001" y="136.05125" width="18.899999999999977" height="3.9487499999999898"/><path fill="none" stroke="#F8B617" paint-order="fill stroke markers" d=" M 111.05000000000001 136.05125 L 129.95 136.05125 L 129.95 140 L 111.05000000000001 140 L 111.05000000000001 136.05125 Z" stroke-miterlimit="10"/><rect fill="#F8B617" stroke="none" x="138.05" y="135.831875" width="18.899999999999977" height="4.168125000000003"/><path fill="none" stroke="#F8B617" paint-order="fill stroke markers" d=" M 138.05 135.831875 L 156.95 135.831875 L 156.95 140 L 138.05 140 L 138.05 135.831875 Z" stroke-miterlimit="10"/><rect fill="#F8B617" stroke="none" x="165.05" y="135.30875" width="18.899999999999977" height="4.691249999999997"/><path fill="none" stroke="#F8B617" paint-order="fill stroke markers" d=" M 165.05 135.30875 L 183.95 135.30875 L 183.95 140 L 165.05 140 L 165.05 135.30875 Z" stroke-miterlimit="10"/><rect fill="#F8B617" stroke="none" x="192.05" y="134.718125" width="18.899999999999977" height="5.281875000000014"/><path fill="none" stroke="#F8B617" paint-order="fill stroke markers" d=" M 192.05 134.718125 L 210.95 134.718125 L 210.95 140 L 192.05 140 L 192.05 134.718125 Z" stroke-miterlimit="10"/><rect fill="#F8B617" stroke="none" x="219.05" y="133.0475" width="18.899999999999977" height="6.952499999999986"/><path fill="none" stroke="#F8B617" paint-order="fill stroke markers" d=" M 219.05 133.0475 L 237.95 133.0475 L 237.95 140 L 219.05 140 L 219.05 133.0475 Z" stroke-miterlimit="10"/><rect fill="#F8B617" stroke="none" x="246.05" y="132.9125" width="18.899999999999977" height="7.087500000000006"/><path fill="none" stroke="#F8B617" paint-order="fill stroke markers" d=" M 246.05 132.9125 L 264.95 132.9125 L 264.95 140 L 246.05 140 L 246.05 132.9125 Z" stroke-miterlimit="10"/><rect fill="#F8B617" stroke="none" x="273.05" y="132.71" width="18.899999999999977" height="7.289999999999992"/><path fill="none" stroke="#F8B617" paint-order="fill stroke markers" d=" M 273.05 132.71 L 291.95 132.71 L 291.95 140 L 273.05 140 L 273.05 132.71 Z" stroke-miterlimit="10"/><rect fill="#F8B617" stroke="none" x="300.05" y="130.82" width="18.899999999999977" height="9.180000000000007"/><path fill="none" stroke="#F8B617" paint-order="fill stroke markers" d=" M 300.05 130.82 L 318.95 130.82 L 318.95 140 L 300.05 140 L 300.05 130.82 Z" stroke-miterlimit="10"/><rect fill="#F8B617" stroke="none" x="327.05" y="130.094375" width="18.899999999999977" height="9.905624999999986"/><path fill="none" stroke="#F8B617" paint-order="fill stroke markers" d=" M 327.05 130.094375 L 345.95 130.094375 L 345.95 140 L 327.05 140 L 327.05 130.094375 Z" stroke-miterlimit="10"/><rect fill="#F8B617" stroke="none" x="354.05" y="127.2425" width="18.899999999999977" height="12.757499999999993"/><path fill="none" stroke="#F8B617" paint-order="fill stroke markers" d=" M 354.05 127.2425 L 372.95 127.2425 L 372.95 140 L 354.05 140 L 354.05 127.2425 Z" stroke-miterlimit="10"/><rect fill="#F8B617" stroke="none" x="381.05" y="123.3275" width="18.899999999999977" height="16.6725"/><path fill="none" stroke="#F8B617" paint-order="fill stroke markers" d=" M 381.05 123.3275 L 399.95 123.3275 L 399.95 140 L 381.05 140 L 381.05 123.3275 Z" stroke-miterlimit="10"/><rect fill="#F8B617" stroke="none" x="408.05" y="121.656875" width="18.899999999999977" height="18.343125"/><path fill="none" stroke="#F8B617" paint-order="fill stroke markers" d=" M 408.05 121.656875 L 426.95 121.656875 L 426.95 140 L 408.05 140 L 408.05 121.656875 Z" stroke-miterlimit="10"/><rect fill="#F8B617" stroke="none" x="435.05" y="121.521875" width="18.899999999999977" height="18.478125000000006"/><path fill="none" stroke="#F8B617" paint-order="fill stroke markers" d=" M 435.05 121.521875 L 453.95 121.521875 L 453.95 140 L 435.05 140 L 435.05 121.521875 Z" stroke-miterlimit="10"/><rect fill="#F8B617" stroke="none" x="462.04999999999995" y="117.370625" width="18.90000000000009" height="22.629374999999996"/><path fill="none" stroke="#F8B617" paint-order="fill stroke markers" d=" M 462.04999999999995 117.370625 L 480.95000000000005 117.370625 L 480.95000000000005 140 L 462.04999999999995 140 L 462.04999999999995 117.370625 Z" stroke-miterlimit="10"/><rect fill="#F8B617" stroke="none" x="489.04999999999995" y="110.148125" width="18.90000000000009" height="29.851875000000007"/><path fill="none" stroke="#F8B617" paint-order="fill stroke markers" d=" M 489.04999999999995 110.148125 L 507.95000000000005 110.148125 L 507.95000000000005 140 L 489.04999999999995 140 L 489.04999999999995 110.148125 Z" stroke-miterlimit="10"/><rect fill="#F8B617" stroke="none" x="516.05" y="43.508750000000006" width="18.90000000000009" height="96.49125"/><path fill="none" stroke="#F8B617" paint-order="fill stroke markers" d=" M 516.05 43.508750000000006 L 534.95 43.508750000000006 L 534.95 140 L 516.05 140 L 516.05 43.508750000000006 Z" stroke-miterlimit="10"/><rect fill="#F8B617" stroke="none" x="543.05" y="8.25687499999998" width="18.90000000000009" height="131.74312500000002"/><path fill="none" stroke="#F8B617" paint-order="fill stroke markers" d=" M 543.05 8.25687499999998 L 561.95 8.25687499999998 L 561.95 140 L 543.05 140 L 543.05 8.25687499999998 Z" stroke-miterlimit="10"/></g></g></g><g clip-path="url(#KRNsIugVFnbG)"><g/></g><g><g fill="#444444"><path fill="none" stroke="black" paint-order="fill stroke markers" d=" M 26 140 L 566 140" stroke-miterlimit="10"/><path fill="none" stroke="black" paint-order="fill stroke markers" d=" M 40 146 L 40 138" stroke-miterlimit="10" stroke-opacity="0"/><path fill="none" stroke="black" paint-order="fill stroke markers" d=" M 67 146 L 67 138" stroke-miterlimit="10" stroke-opacity="0"/><path fill="none" stroke="black" paint-order="fill stroke markers" d=" M 94 146 L 94 138" stroke-miterlimit="10" stroke-opacity="0"/><path fill="none" stroke="black" paint-order="fill stroke markers" d=" M 121 146 L 121 138" stroke-miterlimit="10" stroke-opacity="0"/><path fill="none" stroke="black" paint-order="fill stroke markers" d=" M 148 146 L 148 138" stroke-miterlimit="10" stroke-opacity="0"/><path fill="none" stroke="black" paint-order="fill stroke markers" d=" M 175 146 L 175 138" stroke-miterlimit="10" stroke-opacity="0"/><path fill="none" stroke="black" paint-order="fill stroke markers" d=" M 202 146 L 202 138" stroke-miterlimit="10" stroke-opacity="0"/><path fill="none" stroke="black" paint-order="fill stroke markers" d=" M 229 146 L 229 138" stroke-miterlimit="10" stroke-opacity="0"/><path fill="none" stroke="black" paint-order="fill stroke markers" d=" M 256 146 L 256 138" stroke-miterlimit="10" stroke-opacity="0"/><path fill="none" stroke="black" paint-order="fill stroke markers" d=" M 283 146 L 283 138" stroke-miterlimit="10" stroke-opacity="0"/><path fill="none" stroke="black" paint-order="fill stroke markers" d=" M 310 146 L 310 138" stroke-miterlimit="10" stroke-opacity="0"/><path fill="none" stroke="black" paint-order="fill stroke markers" d=" M 337 146 L 337 138" stroke-miterlimit="10" stroke-opacity="0"/><path fill="none" stroke="black" paint-order="fill stroke markers" d=" M 364 146 L 364 138" stroke-miterlimit="10" stroke-opacity="0"/><path fill="none" stroke="black" paint-order="fill stroke markers" d=" M 391 146 L 391 138" stroke-miterlimit="10" stroke-opacity="0"/><path fill="none" stroke="black" paint-order="fill stroke markers" d=" M 418 146 L 418 138" stroke-miterlimit="10" stroke-opacity="0"/><path fill="none" stroke="black" paint-order="fill stroke markers" d=" M 445 146 L 445 138" stroke-miterlimit="10" stroke-opacity="0"/><path fill="none" stroke="black" paint-order="fill stroke markers" d=" M 472 146 L 472 138" stroke-miterlimit="10" stroke-opacity="0"/><path fill="none" stroke="black" paint-order="fill stroke markers" d=" M 499 146 L 499 138" stroke-miterlimit="10" stroke-opacity="0"/><path fill="none" stroke="black" paint-order="fill stroke markers" d=" M 526 146 L 526 138" stroke-miterlimit="10" stroke-opacity="0"/><path fill="" stroke="black" paint-order="fill stroke markers" d=" M 553 146 L 553 138" stroke-miterlimit="10" stroke-opacity="0"/><g transform="translate(40,151) rotate(0,0,0)"><text fill="" stroke="none" font-family="Apex New" font-size="6pt" font-style="normal" font-weight="normal" text-decoration="normal" x="0" y="0" text-anchor="middle" dominant-baseline="hanging">GHA</text><g transform="rotate(0,0,0) translate(-40,-151) translate(67,151) rotate(0,0,0)"><text fill="" stroke="none" font-family="Apex New" font-size="6pt" font-style="normal" font-weight="normal" text-decoration="normal" x="0" y="0" text-anchor="middle" dominant-baseline="hanging">PRK</text><g transform="rotate(0,0,0) translate(-67,-151) translate(94,151) rotate(0,0,0)"><text fill="" stroke="none" font-family="Apex New" font-size="6pt" font-style="normal" font-weight="normal" text-decoration="normal" x="0" y="0" text-anchor="middle" dominant-baseline="hanging">SDN</text><g transform="rotate(0,0,0) translate(-94,-151) translate(121,151) rotate(0,0,0)"><text fill="" stroke="none" font-family="Apex New" font-size="6pt" font-style="normal" font-weight="normal" text-decoration="normal" x="0" y="0" text-anchor="middle" dominant-baseline="hanging">AFG</text><g transform="rotate(0,0,0) translate(-121,-151) translate(148,151) rotate(0,0,0)"><text fill="" stroke="none" font-family="Apex New" font-size="6pt" font-style="normal" font-weight="normal" text-decoration="normal" x="0" y="0" text-anchor="middle" dominant-baseline="hanging">MDG</text><g transform="rotate(0,0,0) translate(-148,-151) translate(175,151) rotate(0,0,0)"><text fill="" stroke="none" font-family="Apex New" font-size="6pt" font-style="normal" font-weight="normal" text-decoration="normal" x="0" y="0" text-anchor="middle" dominant-baseline="hanging">MOZ</text><g transform="rotate(0,0,0) translate(-175,-151) translate(202,151) rotate(0,0,0)"><text fill="" stroke="none" font-family="Apex New" font-size="6pt" font-style="normal" font-weight="normal" text-decoration="normal" x="0" y="0" text-anchor="middle" dominant-baseline="hanging">VNM</text><g transform="rotate(0,0,0) translate(-202,-151) translate(229,151) rotate(0,0,0)"><text fill="" stroke="none" font-family="Apex New" font-size="6pt" font-style="normal" font-weight="normal" text-decoration="normal" x="0" y="0" text-anchor="middle" dominant-baseline="hanging">UGA</text><g transform="rotate(0,0,0) translate(-229,-151) translate(256,151) rotate(0,0,0)"><text fill="" stroke="none" font-family="Apex New" font-size="6pt" font-style="normal" font-weight="normal" text-decoration="normal" x="0" y="0" text-anchor="middle" dominant-baseline="hanging">KEN</text><g transform="rotate(0,0,0) translate(-256,-151) translate(283,151) rotate(0,0,0)"><text fill="" stroke="none" font-family="Apex New" font-size="6pt" font-style="normal" font-weight="normal" text-decoration="normal" x="0" y="0" text-anchor="middle" dominant-baseline="hanging">MMR</text><g transform="rotate(0,0,0) translate(-283,-151) translate(310,151) rotate(0,0,0)"><text fill="" stroke="none" font-family="Apex New" font-size="6pt" font-style="normal" font-weight="normal" text-decoration="normal" x="0" y="0" text-anchor="middle" dominant-baseline="hanging">TZA</text><g transform="rotate(0,0,0) translate(-310,-151) translate(337,151) rotate(0,0,0)"><text fill="" stroke="none" font-family="Apex New" font-size="6pt" font-style="normal" font-weight="normal" text-decoration="normal" x="0" y="0" text-anchor="middle" dominant-baseline="hanging">PHL</text><g transform="rotate(0,0,0) translate(-337,-151) translate(364,151) rotate(0,0,0)"><text fill="" stroke="none" font-family="Apex New" font-size="6pt" font-style="normal" font-weight="normal" text-decoration="normal" x="0" y="0" text-anchor="middle" dominant-baseline="hanging">COD</text><g transform="rotate(0,0,0) translate(-364,-151) translate(391,151) rotate(0,0,0)"><text fill="" stroke="none" font-family="Apex New" font-size="6pt" font-style="normal" font-weight="normal" text-decoration="normal" x="0" y="0" text-anchor="middle" dominant-baseline="hanging">ETH</text><g transform="rotate(0,0,0) translate(-391,-151) translate(418,151) rotate(0,0,0)"><text fill="" stroke="none" font-family="Apex New" font-size="6pt" font-style="normal" font-weight="normal" text-decoration="normal" x="0" y="0" text-anchor="middle" dominant-baseline="hanging">IDN</text><g transform="rotate(0,0,0) translate(-418,-151) translate(445,151) rotate(0,0,0)"><text fill="" stroke="none" font-family="Apex New" font-size="6pt" font-style="normal" font-weight="normal" text-decoration="normal" x="0" y="0" text-anchor="middle" dominant-baseline="hanging">PAK</text><g transform="rotate(0,0,0) translate(-445,-151) translate(472,151) rotate(0,0,0)"><text fill="" stroke="none" font-family="Apex New" font-size="6pt" font-style="normal" font-weight="normal" text-decoration="normal" x="0" y="0" text-anchor="middle" dominant-baseline="hanging">BGD</text><g transform="rotate(0,0,0) translate(-472,-151) translate(499,151) rotate(0,0,0)"><text fill="" stroke="none" font-family="Apex New" font-size="6pt" font-style="normal" font-weight="normal" text-decoration="normal" x="0" y="0" text-anchor="middle" dominant-baseline="hanging">NGA</text><g transform="rotate(0,0,0) translate(-499,-151) translate(526,151) rotate(0,0,0)"><text fill="" stroke="none" font-family="Apex New" font-size="6pt" font-style="normal" font-weight="normal" text-decoration="normal" x="0" y="0" text-anchor="middle" dominant-baseline="hanging">CHN</text><g transform="rotate(0,0,0) translate(-526,-151) translate(553,151) rotate(0,0,0)"><text fill="" stroke="none" font-family="Apex New" font-size="6pt" font-style="normal" font-weight="normal" text-decoration="normal" x="0" y="0" text-anchor="middle" dominant-baseline="hanging">IND</text><g transform="rotate(0,0,0) translate(-553,-151)"/></g></g></g></g></g></g></g></g></g></g></g></g></g></g></g></g></g></g></g></g></g><g fill="#444444"><path fill="none" stroke="black" paint-order="fill stroke markers" d=" M 26 140 L 26 5" stroke-miterlimit="10" stroke-opacity="0"/><path fill="none" stroke="#919191" paint-order="fill stroke markers" d=" M 20 140 L 27 140" stroke-miterlimit="10"/><path fill="none" stroke="#919191" paint-order="fill stroke markers" d=" M 20 106 L 27 106" stroke-miterlimit="10"/><path fill="none" stroke="#919191" paint-order="fill stroke markers" d=" M 20 73 L 27 73" stroke-miterlimit="10"/><path fill="none" stroke="#919191" paint-order="fill stroke markers" d=" M 20 39 L 27 39" stroke-miterlimit="10"/><path fill="" stroke="#919191" paint-order="fill stroke markers" d=" M 20 5 L 27 5" stroke-miterlimit="10"/><g transform="translate(15,140) rotate(0,0,0)"><text fill="" stroke="none" font-family="Apex New" font-size="6pt" font-style="normal" font-weight="normal" text-decoration="normal" x="0" y="0" text-anchor="end" dominant-baseline="central">0</text><g transform="rotate(0,0,0) translate(-15,-140) translate(15,106) rotate(0,0,0)"><text fill="" stroke="none" font-family="Apex New" font-size="6pt" font-style="normal" font-weight="normal" text-decoration="normal" x="0" y="0" text-anchor="end" dominant-baseline="central">200</text><g transform="rotate(0,0,0) translate(-15,-106) translate(15,73) rotate(0,0,0)"><text fill="" stroke="none" font-family="Apex New" font-size="6pt" font-style="normal" font-weight="normal" text-decoration="normal" x="0" y="0" text-anchor="end" dominant-baseline="central">400</text><g transform="rotate(0,0,0) translate(-15,-73) translate(15,39) rotate(0,0,0)"><text fill="" stroke="none" font-family="Apex New" font-size="6pt" font-style="normal" font-weight="normal" text-decoration="normal" x="0" y="0" text-anchor="end" dominant-baseline="central">600</text><g transform="rotate(0,0,0) translate(-15,-39) translate(15,5) rotate(0,0,0)"><text fill="" stroke="none" font-family="Apex New" font-size="6pt" font-style="normal" font-weight="normal" text-decoration="normal" x="0" y="0" text-anchor="end" dominant-baseline="central">800</text><g transform="rotate(0,0,0) translate(-15,-5)"/></g></g></g></g></g></g></g></g></g></svg>