<svg version="1.1" xmlns="http://www.w3.org/2000/svg" xmlns:xlink="http://www.w3.org/1999/xlink" width="556" height="160" style="width: 556px; height: 160px;"><defs><clipPath id="nyxEOyqtUPCU"><path fill="none" stroke="none" d=" M 43 5 L 513 5 L 513 140 L 43 140 L 43 5 Z"/></clipPath><clipPath id="JpryBOxvLchV"><path fill="none" stroke="none" d=" M 43 5 L 513 5 L 513 140 L 43 140 L 43 5 Z"/></clipPath></defs><g><g transform="scale(1,1) translate(0.5,0.5)"><rect fill="#FFFFFF" stroke="none" x="0" y="0" width="556" height="160"/><rect fill="#ffffff" stroke="none" x="0" y="0" width="556" height="160"/><rect fill="#FFFFFF" stroke="none" x="43" y="5" width="470" height="135"/><rect fill="#ffffff" stroke="none" x="43" y="5" width="470" height="135"/><g/><g clip-path="url(#nyxEOyqtUPCU)"><g><g/><g><path fill="none" stroke="#919191" paint-order="fill stroke markers" d=" M 43 106 L 513 106" stroke-miterlimit="10"/><path fill="none" stroke="#919191" paint-order="fill stroke markers" d=" M 43 73 L 513 73" stroke-miterlimit="10"/><path fill="none" stroke="#919191" paint-order="fill stroke markers" d=" M 43 39 L 513 39" stroke-miterlimit="10"/></g><g><path fill="none" stroke="none"/><rect fill="#F8B617" stroke="none" x="47.7" y="136.270625" width="14.099999999999994" height="3.7293750000000045"/><path fill="none" stroke="#F8B617" paint-order="fill stroke markers" d=" M 47.7 136.270625 L 61.8 136.270625 L 61.8 140 L 47.7 140 L 47.7 136.270625 Z" stroke-miterlimit="10"/><rect fill="#F8B617" stroke="none" x="71.19999999999999" y="136.18625" width="14.100000000000023" height="3.813749999999999"/><path fill="none" stroke="#F8B617" paint-order="fill stroke markers" d=" M 71.19999999999999 136.18625 L 85.30000000000001 136.18625 L 85.30000000000001 140 L 71.19999999999999 140 L 71.19999999999999 136.18625 Z" stroke-miterlimit="10"/><rect fill="#F8B617" stroke="none" x="94.7" y="136.085" width="14.099999999999994" height="3.914999999999992"/><path fill="none" stroke="#F8B617" paint-order="fill stroke markers" d=" M 94.7 136.085 L 108.8 136.085 L 108.8 140 L 94.7 140 L 94.7 136.085 Z" stroke-miterlimit="10"/><rect fill="#F8B617" stroke="none" x="118.19999999999999" y="136.05125" width="14.100000000000023" height="3.9487499999999898"/><path fill="none" stroke="#F8B617" paint-order="fill stroke markers" d=" M 118.19999999999999 136.05125 L 132.3 136.05125 L 132.3 140 L 118.19999999999999 140 L 118.19999999999999 136.05125 Z" stroke-miterlimit="10"/><rect fill="#F8B617" stroke="none" x="141.7" y="135.831875" width="14.100000000000023" height="4.168125000000003"/><path fill="none" stroke="#F8B617" paint-order="fill stroke markers" d=" M 141.7 135.831875 L 155.8 135.831875 L 155.8 140 L 141.7 140 L 141.7 135.831875 Z" stroke-miterlimit="10"/><rect fill="#F8B617" stroke="none" x="165.2" y="135.30875" width="14.100000000000023" height="4.691249999999997"/><path fill="none" stroke="#F8B617" paint-order="fill stroke markers" d=" M 165.2 135.30875 L 179.3 135.30875 L 179.3 140 L 165.2 140 L 165.2 135.30875 Z" stroke-miterlimit="10"/><rect fill="#F8B617" stroke="none" x="188.70000000000002" y="134.718125" width="14.099999999999966" height="5.281875000000014"/><path fill="none" stroke="#F8B617" paint-order="fill stroke markers" d=" M 188.70000000000002 134.718125 L 202.79999999999998 134.718125 L 202.79999999999998 140 L 188.70000000000002 140 L 188.70000000000002 134.718125 Z" stroke-miterlimit="10"/><rect fill="#F8B617" stroke="none" x="212.20000000000002" y="133.0475" width="14.099999999999966" height="6.952499999999986"/><path fill="none" stroke="#F8B617" paint-order="fill stroke markers" d=" M 212.20000000000002 133.0475 L 226.29999999999998 133.0475 L 226.29999999999998 140 L 212.20000000000002 140 L 212.20000000000002 133.0475 Z" stroke-miterlimit="10"/><rect fill="#F8B617" stroke="none" x="235.7" y="132.9125" width="14.100000000000023" height="7.087500000000006"/><path fill="none" stroke="#F8B617" paint-order="fill stroke markers" d=" M 235.7 132.9125 L 249.8 132.9125 L 249.8 140 L 235.7 140 L 235.7 132.9125 Z" stroke-miterlimit="10"/><rect fill="#F8B617" stroke="none" x="259.2" y="132.71" width="14.100000000000023" height="7.289999999999992"/><path fill="none" stroke="#F8B617" paint-order="fill stroke markers" d=" M 259.2 132.71 L 273.3 132.71 L 273.3 140 L 259.2 140 L 259.2 132.71 Z" stroke-miterlimit="10"/><rect fill="#F8B617" stroke="none" x="282.7" y="130.82" width="14.100000000000023" height="9.180000000000007"/><path fill="none" stroke="#F8B617" paint-order="fill stroke markers" d=" M 282.7 130.82 L 296.8 130.82 L 296.8 140 L 282.7 140 L 282.7 130.82 Z" stroke-miterlimit="10"/><rect fill="#F8B617" stroke="none" x="306.2" y="130.094375" width="14.100000000000023" height="9.905624999999986"/><path fill="none" stroke="#F8B617" paint-order="fill stroke markers" d=" M 306.2 130.094375 L 320.3 130.094375 L 320.3 140 L 306.2 140 L 306.2 130.094375 Z" stroke-miterlimit="10"/><rect fill="#F8B617" stroke="none" x="329.7" y="127.2425" width="14.100000000000023" height="12.757499999999993"/><path fill="none" stroke="#F8B617" paint-order="fill stroke markers" d=" M 329.7 127.2425 L 343.8 127.2425 L 343.8 140 L 329.7 140 L 329.7 127.2425 Z" stroke-miterlimit="10"/><rect fill="#F8B617" stroke="none" x="353.2" y="123.3275" width="14.100000000000023" height="16.6725"/><path fill="none" stroke="#F8B617" paint-order="fill stroke markers" d=" M 353.2 123.3275 L 367.3 123.3275 L 367.3 140 L 353.2 140 L 353.2 123.3275 Z" stroke-miterlimit="10"/><rect fill="#F8B617" stroke="none" x="376.7" y="121.656875" width="14.100000000000023" height="18.343125"/><path fill="none" stroke="#F8B617" paint-order="fill stroke markers" d=" M 376.7 121.656875 L 390.8 121.656875 L 390.8 140 L 376.7 140 L 376.7 121.656875 Z" stroke-miterlimit="10"/><rect fill="#F8B617" stroke="none" x="400.2" y="121.521875" width="14.100000000000023" height="18.478125000000006"/><path fill="none" stroke="#F8B617" paint-order="fill stroke markers" d=" M 400.2 121.521875 L 414.3 121.521875 L 414.3 140 L 400.2 140 L 400.2 121.521875 Z" stroke-miterlimit="10"/><rect fill="#F8B617" stroke="none" x="423.7" y="117.370625" width="14.100000000000023" height="22.629374999999996"/><path fill="none" stroke="#F8B617" paint-order="fill stroke markers" d=" M 423.7 117.370625 L 437.8 117.370625 L 437.8 140 L 423.7 140 L 423.7 117.370625 Z" stroke-miterlimit="10"/><rect fill="#F8B617" stroke="none" x="447.2" y="110.148125" width="14.100000000000023" height="29.851875000000007"/><path fill="none" stroke="#F8B617" paint-order="fill stroke markers" d=" M 447.2 110.148125 L 461.3 110.148125 L 461.3 140 L 447.2 140 L 447.2 110.148125 Z" stroke-miterlimit="10"/><rect fill="#F8B617" stroke="none" x="470.7" y="43.508750000000006" width="14.100000000000023" height="96.49125"/><path fill="none" stroke="#F8B617" paint-order="fill stroke markers" d=" M 470.7 43.508750000000006 L 484.8 43.508750000000006 L 484.8 140 L 470.7 140 L 470.7 43.508750000000006 Z" stroke-miterlimit="10"/><rect fill="#F8B617" stroke="none" x="494.2" y="8.25687499999998" width="14.100000000000023" height="131.74312500000002"/><path fill="none" stroke="#F8B617" paint-order="fill stroke markers" d=" M 494.2 8.25687499999998 L 508.3 8.25687499999998 L 508.3 140 L 494.2 140 L 494.2 8.25687499999998 Z" stroke-miterlimit="10"/></g></g></g><g clip-path="url(#JpryBOxvLchV)"><g/></g><g><g fill="#444444"><path fill="" stroke="black" paint-order="fill stroke markers" d=" M 43 140 L 513 140" stroke-miterlimit="10"/><g transform="translate(55,151) rotate(0,0,0)"><text fill="" stroke="none" font-family="Apex New" font-size="6pt" font-style="normal" font-weight="bold" text-decoration="normal" x="0" y="0" text-anchor="middle" dominant-baseline="hanging">GHA</text><g transform="rotate(0,0,0) translate(-55,-151) translate(78,151) rotate(0,0,0)"><text fill="" stroke="none" font-family="Apex New" font-size="6pt" font-style="normal" font-weight="bold" text-decoration="normal" x="0" y="0" text-anchor="middle" dominant-baseline="hanging">PRK</text><g transform="rotate(0,0,0) translate(-78,-151) translate(102,151) rotate(0,0,0)"><text fill="" stroke="none" font-family="Apex New" font-size="6pt" font-style="normal" font-weight="bold" text-decoration="normal" x="0" y="0" text-anchor="middle" dominant-baseline="hanging">SDN</text><g transform="rotate(0,0,0) translate(-102,-151) translate(125,151) rotate(0,0,0)"><text fill="" stroke="none" font-family="Apex New" font-size="6pt" font-style="normal" font-weight="bold" text-decoration="normal" x="0" y="0" text-anchor="middle" dominant-baseline="hanging">AFG</text><g transform="rotate(0,0,0) translate(-125,-151) translate(149,151) rotate(0,0,0)"><text fill="" stroke="none" font-family="Apex New" font-size="6pt" font-style="normal" font-weight="bold" text-decoration="normal" x="0" y="0" text-anchor="middle" dominant-baseline="hanging">MDG</text><g transform="rotate(0,0,0) translate(-149,-151) translate(172,151) rotate(0,0,0)"><text fill="" stroke="none" font-family="Apex New" font-size="6pt" font-style="normal" font-weight="bold" text-decoration="normal" x="0" y="0" text-anchor="middle" dominant-baseline="hanging">MOZ</text><g transform="rotate(0,0,0) translate(-172,-151) translate(196,151) rotate(0,0,0)"><text fill="" stroke="none" font-family="Apex New" font-size="6pt" font-style="normal" font-weight="bold" text-decoration="normal" x="0" y="0" text-anchor="middle" dominant-baseline="hanging">VNM</text><g transform="rotate(0,0,0) translate(-196,-151) translate(219,151) rotate(0,0,0)"><text fill="" stroke="none" font-family="Apex New" font-size="6pt" font-style="normal" font-weight="bold" text-decoration="normal" x="0" y="0" text-anchor="middle" dominant-baseline="hanging">UGA</text><g transform="rotate(0,0,0) translate(-219,-151) translate(243,151) rotate(0,0,0)"><text fill="" stroke="none" font-family="Apex New" font-size="6pt" font-style="normal" font-weight="bold" text-decoration="normal" x="0" y="0" text-anchor="middle" dominant-baseline="hanging">KEN</text><g transform="rotate(0,0,0) translate(-243,-151) translate(266,151) rotate(0,0,0)"><text fill="" stroke="none" font-family="Apex New" font-size="6pt" font-style="normal" font-weight="bold" text-decoration="normal" x="0" y="0" text-anchor="middle" dominant-baseline="hanging">MMR</text><g transform="rotate(0,0,0) translate(-266,-151) translate(290,151) rotate(0,0,0)"><text fill="" stroke="none" font-family="Apex New" font-size="6pt" font-style="normal" font-weight="bold" text-decoration="normal" x="0" y="0" text-anchor="middle" dominant-baseline="hanging">TZA</text><g transform="rotate(0,0,0) translate(-290,-151) translate(313,151) rotate(0,0,0)"><text fill="" stroke="none" font-family="Apex New" font-size="6pt" font-style="normal" font-weight="bold" text-decoration="normal" x="0" y="0" text-anchor="middle" dominant-baseline="hanging">PHL</text><g transform="rotate(0,0,0) translate(-313,-151) translate(337,151) rotate(0,0,0)"><text fill="" stroke="none" font-family="Apex New" font-size="6pt" font-style="normal" font-weight="bold" text-decoration="normal" x="0" y="0" text-anchor="middle" dominant-baseline="hanging">COD</text><g transform="rotate(0,0,0) translate(-337,-151) translate(360,151) rotate(0,0,0)"><text fill="" stroke="none" font-family="Apex New" font-size="6pt" font-style="normal" font-weight="bold" text-decoration="normal" x="0" y="0" text-anchor="middle" dominant-baseline="hanging">ETH</text><g transform="rotate(0,0,0) translate(-360,-151) translate(384,151) rotate(0,0,0)"><text fill="" stroke="none" font-family="Apex New" font-size="6pt" font-style="normal" font-weight="bold" text-decoration="normal" x="0" y="0" text-anchor="middle" dominant-baseline="hanging">IDN</text><g transform="rotate(0,0,0) translate(-384,-151) translate(407,151) rotate(0,0,0)"><text fill="" stroke="none" font-family="Apex New" font-size="6pt" font-style="normal" font-weight="bold" text-decoration="normal" x="0" y="0" text-anchor="middle" dominant-baseline="hanging">PAK</text><g transform="rotate(0,0,0) translate(-407,-151) translate(431,151) rotate(0,0,0)"><text fill="" stroke="none" font-family="Apex New" font-size="6pt" font-style="normal" font-weight="bold" text-decoration="normal" x="0" y="0" text-anchor="middle" dominant-baseline="hanging">BGD</text><g transform="rotate(0,0,0) translate(-431,-151) translate(454,151) rotate(0,0,0)"><text fill="" stroke="none" font-family="Apex New" font-size="6pt" font-style="normal" font-weight="bold" text-decoration="normal" x="0" y="0" text-anchor="middle" dominant-baseline="hanging">NGA</text><g transform="rotate(0,0,0) translate(-454,-151) translate(478,151) rotate(0,0,0)"><text fill="" stroke="none" font-family="Apex New" font-size="6pt" font-style="normal" font-weight="bold" text-decoration="normal" x="0" y="0" text-anchor="middle" dominant-baseline="hanging">CHN</text><g transform="rotate(0,0,0) translate(-478,-151) translate(501,151) rotate(0,0,0)"><text fill="" stroke="none" font-family="Apex New" font-size="6pt" font-style="normal" font-weight="bold" text-decoration="normal" x="0" y="0" text-anchor="middle" dominant-baseline="hanging">IND</text><g transform="rotate(0,0,0) translate(-501,-151)"/></g></g></g></g></g></g></g></g></g></g></g></g></g></g></g></g></g></g></g></g></g><g fill="#444444"><path fill="none" stroke="black" paint-order="fill stroke markers" d=" M 43 140 L 43 5" stroke-miterlimit="10" stroke-opacity="0"/><path fill="none" stroke="#919191" paint-order="fill stroke markers" d=" M 37 140 L 44 140" stroke-miterlimit="10"/><path fill="none" stroke="#919191" paint-order="fill stroke markers" d=" M 37 106 L 44 106" stroke-miterlimit="10"/><path fill="none" stroke="#919191" paint-order="fill stroke markers" d=" M 37 73 L 44 73" stroke-miterlimit="10"/><path fill="none" stroke="#919191" paint-order="fill stroke markers" d=" M 37 39 L 44 39" stroke-miterlimit="10"/><path fill="" stroke="#919191" paint-order="fill stroke markers" d=" M 37 5 L 44 5" stroke-miterlimit="10"/><g transform="translate(32,140) rotate(0,0,0)"><text fill="" stroke="none" font-family="Apex New" font-size="6pt" font-style="normal" font-weight="bold" text-decoration="normal" x="0" y="0" text-anchor="end" dominant-baseline="central">0</text><g transform="rotate(0,0,0) translate(-32,-140) translate(32,106) rotate(0,0,0)"><text fill="" stroke="none" font-family="Apex New" font-size="6pt" font-style="normal" font-weight="bold" text-decoration="normal" x="0" y="0" text-anchor="end" dominant-baseline="central">200</text><g transform="rotate(0,0,0) translate(-32,-106) translate(32,73) rotate(0,0,0)"><text fill="" stroke="none" font-family="Apex New" font-size="6pt" font-style="normal" font-weight="bold" text-decoration="normal" x="0" y="0" text-anchor="end" dominant-baseline="central">400</text><g transform="rotate(0,0,0) translate(-32,-73) translate(32,39) rotate(0,0,0)"><text fill="" stroke="none" font-family="Apex New" font-size="6pt" font-style="normal" font-weight="bold" text-decoration="normal" x="0" y="0" text-anchor="end" dominant-baseline="central">600</text><g transform="rotate(0,0,0) translate(-32,-39) translate(32,5) rotate(0,0,0)"><text fill="" stroke="none" font-family="Apex New" font-size="6pt" font-style="normal" font-weight="bold" text-decoration="normal" x="0" y="0" text-anchor="end" dominant-baseline="central">800</text><g transform="rotate(0,0,0) translate(-32,-5)"/></g></g></g></g></g></g></g></g></g></svg>