<svg version="1.1" xmlns="http://www.w3.org/2000/svg" xmlns:xlink="http://www.w3.org/1999/xlink" width="596" height="120" style="width: 596px; height: 120px;"><defs><clipPath id="XEtNlVvKvgTx"><path fill="none" stroke="none" d=" M 43 5 L 553 5 L 553 100 L 43 100 L 43 5 Z"/></clipPath><clipPath id="OIPHeXGDbKGv"><path fill="none" stroke="none" d=" M 43 5 L 553 5 L 553 100 L 43 100 L 43 5 Z"/></clipPath></defs><g><g transform="scale(1,1) translate(0.5,0.5)"><rect fill="#FFFFFF" stroke="none" x="0" y="0" width="596" height="120"/><rect fill="#ffffff" stroke="none" x="0" y="0" width="596" height="120"/><rect fill="#FFFFFF" stroke="none" x="43" y="5" width="510" height="95"/><rect fill="#ffffff" stroke="none" x="43" y="5" width="510" height="95"/><g/><g clip-path="url(#XEtNlVvKvgTx)"><g><g/><g><path fill="none" stroke="#919191" paint-order="fill stroke markers" d=" M 43 76 L 553 76" stroke-miterlimit="10" stroke-width="0.5"/><path fill="none" stroke="#919191" paint-order="fill stroke markers" d=" M 43 53 L 553 53" stroke-miterlimit="10" stroke-width="0.5"/><path fill="none" stroke="#919191" paint-order="fill stroke markers" d=" M 43 29 L 553 29" stroke-miterlimit="10" stroke-width="0.5"/><path fill="none" stroke="#919191" paint-order="fill stroke markers" d=" M 43 5 L 553 5" stroke-miterlimit="10" stroke-width="0.5"/></g><g><path fill="none" stroke="none"/><rect fill="#F8B617" stroke="none" x="47.2585" y="7.638231631382311" width="16.983000000000004" height="92.36176836861769"/><path fill="none" stroke="#F8B617" paint-order="fill stroke markers" d=" M 47.2585 7.638231631382311 L 64.2415 7.638231631382311 L 64.2415 100 L 47.2585 100 L 47.2585 7.638231631382311 Z" stroke-miterlimit="10"/><rect fill="#F8B617" stroke="none" x="72.7585" y="32.35242839352429" width="16.983000000000004" height="67.64757160647571"/><path fill="none" stroke="#F8B617" paint-order="fill stroke markers" d=" M 72.7585 32.35242839352429 L 89.7415 32.35242839352429 L 89.7415 100 L 72.7585 100 L 72.7585 32.35242839352429 Z" stroke-miterlimit="10"/><rect fill="#F8B617" stroke="none" x="98.2585" y="79.07160647571607" width="16.983000000000004" height="20.928393524283933"/><path fill="none" stroke="#F8B617" paint-order="fill stroke markers" d=" M 98.2585 79.07160647571607 L 115.2415 79.07160647571607 L 115.2415 100 L 98.2585 100 L 98.2585 79.07160647571607 Z" stroke-miterlimit="10"/><rect fill="#F8B617" stroke="none" x="123.7585" y="84.13511830635119" width="16.983000000000004" height="15.864881693648812"/><path fill="none" stroke="#F8B617" paint-order="fill stroke markers" d=" M 123.7585 84.13511830635119 L 140.7415 84.13511830635119 L 140.7415 100 L 123.7585 100 L 123.7585 84.13511830635119 Z" stroke-miterlimit="10"/><rect fill="#F8B617" stroke="none" x="149.2585" y="87.04545454545455" width="16.983000000000004" height="12.954545454545453"/><path fill="none" stroke="#F8B617" paint-order="fill stroke markers" d=" M 149.2585 87.04545454545455 L 166.2415 87.04545454545455 L 166.2415 100 L 149.2585 100 L 149.2585 87.04545454545455 Z" stroke-miterlimit="10"/><rect fill="#F8B617" stroke="none" x="174.7585" y="87.140099626401" width="16.983000000000004" height="12.859900373599004"/><path fill="none" stroke="#F8B617" paint-order="fill stroke markers" d=" M 174.7585 87.140099626401 L 191.7415 87.140099626401 L 191.7415 100 L 174.7585 100 L 174.7585 87.140099626401 Z" stroke-miterlimit="10"/><rect fill="#F8B617" stroke="none" x="200.2585" y="88.31133250311332" width="16.983000000000004" height="11.68866749688668"/><path fill="none" stroke="#F8B617" paint-order="fill stroke markers" d=" M 200.2585 88.31133250311332 L 217.2415 88.31133250311332 L 217.2415 100 L 200.2585 100 L 200.2585 88.31133250311332 Z" stroke-miterlimit="10"/><rect fill="#F8B617" stroke="none" x="225.7585" y="91.0560398505604" width="16.983000000000004" height="8.943960149439604"/><path fill="none" stroke="#F8B617" paint-order="fill stroke markers" d=" M 225.7585 91.0560398505604 L 242.7415 91.0560398505604 L 242.7415 100 L 225.7585 100 L 225.7585 91.0560398505604 Z" stroke-miterlimit="10"/><rect fill="#F8B617" stroke="none" x="251.25850000000003" y="93.05541718555418" width="16.982999999999947" height="6.944582814445823"/><path fill="none" stroke="#F8B617" paint-order="fill stroke markers" d=" M 251.25850000000003 93.05541718555418 L 268.2415 93.05541718555418 L 268.2415 100 L 251.25850000000003 100 L 251.25850000000003 93.05541718555418 Z" stroke-miterlimit="10"/><rect fill="#F8B617" stroke="none" x="276.7585" y="93.56413449564134" width="16.982999999999947" height="6.4358655043586595"/><path fill="none" stroke="#F8B617" paint-order="fill stroke markers" d=" M 276.7585 93.56413449564134 L 293.7415 93.56413449564134 L 293.7415 100 L 276.7585 100 L 276.7585 93.56413449564134 Z" stroke-miterlimit="10"/><rect fill="#F8B617" stroke="none" x="302.25849999999997" y="94.88916562889166" width="16.98300000000006" height="5.110834371108339"/><path fill="none" stroke="#F8B617" paint-order="fill stroke markers" d=" M 302.25849999999997 94.88916562889166 L 319.24150000000003 94.88916562889166 L 319.24150000000003 100 L 302.25849999999997 100 L 302.25849999999997 94.88916562889166 Z" stroke-miterlimit="10"/><rect fill="#F8B617" stroke="none" x="327.75849999999997" y="95.03113325031133" width="16.98300000000006" height="4.968866749688672"/><path fill="none" stroke="#F8B617" paint-order="fill stroke markers" d=" M 327.75849999999997 95.03113325031133 L 344.74150000000003 95.03113325031133 L 344.74150000000003 100 L 327.75849999999997 100 L 327.75849999999997 95.03113325031133 Z" stroke-miterlimit="10"/><rect fill="#F8B617" stroke="none" x="353.25849999999997" y="95.12577833125778" width="16.98300000000006" height="4.874221668742223"/><path fill="none" stroke="#F8B617" paint-order="fill stroke markers" d=" M 353.25849999999997 95.12577833125778 L 370.24150000000003 95.12577833125778 L 370.24150000000003 100 L 353.25849999999997 100 L 353.25849999999997 95.12577833125778 Z" stroke-miterlimit="10"/><rect fill="#F8B617" stroke="none" x="378.75849999999997" y="96.29701120797012" width="16.98300000000006" height="3.7029887920298847"/><path fill="none" stroke="#F8B617" paint-order="fill stroke markers" d=" M 378.75849999999997 96.29701120797012 L 395.74150000000003 96.29701120797012 L 395.74150000000003 100 L 378.75849999999997 100 L 378.75849999999997 96.29701120797012 Z" stroke-miterlimit="10"/><rect fill="#F8B617" stroke="none" x="404.25849999999997" y="96.71108343711083" width="16.98300000000006" height="3.2889165628891703"/><path fill="none" stroke="#F8B617" paint-order="fill stroke markers" d=" M 404.25849999999997 96.71108343711083 L 421.24150000000003 96.71108343711083 L 421.24150000000003 100 L 404.25849999999997 100 L 404.25849999999997 96.71108343711083 Z" stroke-miterlimit="10"/><rect fill="#F8B617" stroke="none" x="429.75849999999997" y="97.07783312577833" width="16.98300000000006" height="2.9221668742216735"/><path fill="none" stroke="#F8B617" paint-order="fill stroke markers" d=" M 429.75849999999997 97.07783312577833 L 446.74150000000003 97.07783312577833 L 446.74150000000003 100 L 429.75849999999997 100 L 429.75849999999997 97.07783312577833 Z" stroke-miterlimit="10"/><rect fill="#F8B617" stroke="none" x="455.2585" y="97.23163138231631" width="16.982999999999947" height="2.7683686176836915"/><path fill="none" stroke="#F8B617" paint-order="fill stroke markers" d=" M 455.2585 97.23163138231631 L 472.2415 97.23163138231631 L 472.2415 100 L 455.2585 100 L 455.2585 97.23163138231631 Z" stroke-miterlimit="10"/><rect fill="#F8B617" stroke="none" x="480.7585" y="97.25529265255292" width="16.982999999999947" height="2.7447073474470756"/><path fill="none" stroke="#F8B617" paint-order="fill stroke markers" d=" M 480.7585 97.25529265255292 L 497.7415 97.25529265255292 L 497.7415 100 L 480.7585 100 L 480.7585 97.25529265255292 Z" stroke-miterlimit="10"/><rect fill="#F8B617" stroke="none" x="506.2585" y="97.32627646326276" width="16.982999999999947" height="2.673723536737242"/><path fill="none" stroke="#F8B617" paint-order="fill stroke markers" d=" M 506.2585 97.32627646326276 L 523.2415 97.32627646326276 L 523.2415 100 L 506.2585 100 L 506.2585 97.32627646326276 Z" stroke-miterlimit="10"/><rect fill="#F8B617" stroke="none" x="531.7585" y="97.38542963885429" width="16.982999999999947" height="2.6145703611457094"/><path fill="none" stroke="#F8B617" paint-order="fill stroke markers" d=" M 531.7585 97.38542963885429 L 548.7415 97.38542963885429 L 548.7415 100 L 531.7585 100 L 531.7585 97.38542963885429 Z" stroke-miterlimit="10"/></g></g></g><g clip-path="url(#OIPHeXGDbKGv)"><g/></g><g><g fill="#444444"><path fill="" stroke="black" paint-order="fill stroke markers" d=" M 43 100 L 553 100" stroke-miterlimit="10"/><g transform="translate(56,111) rotate(0,0,0)"><text fill="" stroke="none" font-family="Apex New" font-size="6pt" font-style="normal" font-weight="bold" text-decoration="normal" x="0" y="0" text-anchor="middle" dominant-baseline="hanging">IND</text><g transform="rotate(0,0,0) translate(-56,-111) translate(81,111) rotate(0,0,0)"><text fill="" stroke="none" font-family="Apex New" font-size="6pt" font-style="normal" font-weight="bold" text-decoration="normal" x="0" y="0" text-anchor="middle" dominant-baseline="hanging">CHN</text><g transform="rotate(0,0,0) translate(-81,-111) translate(107,111) rotate(0,0,0)"><text fill="" stroke="none" font-family="Apex New" font-size="6pt" font-style="normal" font-weight="bold" text-decoration="normal" x="0" y="0" text-anchor="middle" dominant-baseline="hanging">NGA</text><g transform="rotate(0,0,0) translate(-107,-111) translate(132,111) rotate(0,0,0)"><text fill="" stroke="none" font-family="Apex New" font-size="6pt" font-style="normal" font-weight="bold" text-decoration="normal" x="0" y="0" text-anchor="middle" dominant-baseline="hanging">BGD</text><g transform="rotate(0,0,0) translate(-132,-111) translate(158,111) rotate(0,0,0)"><text fill="" stroke="none" font-family="Apex New" font-size="6pt" font-style="normal" font-weight="bold" text-decoration="normal" x="0" y="0" text-anchor="middle" dominant-baseline="hanging">PAK</text><g transform="rotate(0,0,0) translate(-158,-111) translate(183,111) rotate(0,0,0)"><text fill="" stroke="none" font-family="Apex New" font-size="6pt" font-style="normal" font-weight="bold" text-decoration="normal" x="0" y="0" text-anchor="middle" dominant-baseline="hanging">IDN</text><g transform="rotate(0,0,0) translate(-183,-111) translate(209,111) rotate(0,0,0)"><text fill="" stroke="none" font-family="Apex New" font-size="6pt" font-style="normal" font-weight="bold" text-decoration="normal" x="0" y="0" text-anchor="middle" dominant-baseline="hanging">ETH</text><g transform="rotate(0,0,0) translate(-209,-111) translate(234,111) rotate(0,0,0)"><text fill="" stroke="none" font-family="Apex New" font-size="6pt" font-style="normal" font-weight="bold" text-decoration="normal" x="0" y="0" text-anchor="middle" dominant-baseline="hanging">COD</text><g transform="rotate(0,0,0) translate(-234,-111) translate(260,111) rotate(0,0,0)"><text fill="" stroke="none" font-family="Apex New" font-size="6pt" font-style="normal" font-weight="bold" text-decoration="normal" x="0" y="0" text-anchor="middle" dominant-baseline="hanging">PHL</text><g transform="rotate(0,0,0) translate(-260,-111) translate(285,111) rotate(0,0,0)"><text fill="" stroke="none" font-family="Apex New" font-size="6pt" font-style="normal" font-weight="bold" text-decoration="normal" x="0" y="0" text-anchor="middle" dominant-baseline="hanging">TZA</text><g transform="rotate(0,0,0) translate(-285,-111) translate(311,111) rotate(0,0,0)"><text fill="" stroke="none" font-family="Apex New" font-size="6pt" font-style="normal" font-weight="bold" text-decoration="normal" x="0" y="0" text-anchor="middle" dominant-baseline="hanging">MMR</text><g transform="rotate(0,0,0) translate(-311,-111) translate(336,111) rotate(0,0,0)"><text fill="" stroke="none" font-family="Apex New" font-size="6pt" font-style="normal" font-weight="bold" text-decoration="normal" x="0" y="0" text-anchor="middle" dominant-baseline="hanging">KEN</text><g transform="rotate(0,0,0) translate(-336,-111) translate(362,111) rotate(0,0,0)"><text fill="" stroke="none" font-family="Apex New" font-size="6pt" font-style="normal" font-weight="bold" text-decoration="normal" x="0" y="0" text-anchor="middle" dominant-baseline="hanging">UGA</text><g transform="rotate(0,0,0) translate(-362,-111) translate(387,111) rotate(0,0,0)"><text fill="" stroke="none" font-family="Apex New" font-size="6pt" font-style="normal" font-weight="bold" text-decoration="normal" x="0" y="0" text-anchor="middle" dominant-baseline="hanging">VNM</text><g transform="rotate(0,0,0) translate(-387,-111) translate(413,111) rotate(0,0,0)"><text fill="" stroke="none" font-family="Apex New" font-size="6pt" font-style="normal" font-weight="bold" text-decoration="normal" x="0" y="0" text-anchor="middle" dominant-baseline="hanging">MOZ</text><g transform="rotate(0,0,0) translate(-413,-111) translate(438,111) rotate(0,0,0)"><text fill="" stroke="none" font-family="Apex New" font-size="6pt" font-style="normal" font-weight="bold" text-decoration="normal" x="0" y="0" text-anchor="middle" dominant-baseline="hanging">MDG</text><g transform="rotate(0,0,0) translate(-438,-111) translate(464,111) rotate(0,0,0)"><text fill="" stroke="none" font-family="Apex New" font-size="6pt" font-style="normal" font-weight="bold" text-decoration="normal" x="0" y="0" text-anchor="middle" dominant-baseline="hanging">AFG</text><g transform="rotate(0,0,0) translate(-464,-111) translate(489,111) rotate(0,0,0)"><text fill="" stroke="none" font-family="Apex New" font-size="6pt" font-style="normal" font-weight="bold" text-decoration="normal" x="0" y="0" text-anchor="middle" dominant-baseline="hanging">SDN</text><g transform="rotate(0,0,0) translate(-489,-111) translate(515,111) rotate(0,0,0)"><text fill="" stroke="none" font-family="Apex New" font-size="6pt" font-style="normal" font-weight="bold" text-decoration="normal" x="0" y="0" text-anchor="middle" dominant-baseline="hanging">PRK</text><g transform="rotate(0,0,0) translate(-515,-111) translate(540,111) rotate(0,0,0)"><text fill="" stroke="none" font-family="Apex New" font-size="6pt" font-style="normal" font-weight="bold" text-decoration="normal" x="0" y="0" text-anchor="middle" dominant-baseline="hanging">GHA</text><g transform="rotate(0,0,0) translate(-540,-111)"/></g></g></g></g></g></g></g></g></g></g></g></g></g></g></g></g></g></g></g></g></g><g transform="translate(32,100) rotate(0,0,0)"><text fill="#444444" stroke="none" font-family="Apex New" font-size="6pt" font-style="normal" font-weight="bold" text-decoration="normal" x="0" y="0" text-anchor="end" dominant-baseline="central">0</text><g transform="rotate(0,0,0) translate(-32,-100) translate(32,76) rotate(0,0,0)"><text fill="#444444" stroke="none" font-family="Apex New" font-size="6pt" font-style="normal" font-weight="bold" text-decoration="normal" x="0" y="0" text-anchor="end" dominant-baseline="central">200</text><g transform="rotate(0,0,0) translate(-32,-76) translate(32,53) rotate(0,0,0)"><text fill="#444444" stroke="none" font-family="Apex New" font-size="6pt" font-style="normal" font-weight="bold" text-decoration="normal" x="0" y="0" text-anchor="end" dominant-baseline="central">400</text><g transform="rotate(0,0,0) translate(-32,-53) translate(32,29) rotate(0,0,0)"><text fill="#444444" stroke="none" font-family="Apex New" font-size="6pt" font-style="normal" font-weight="bold" text-decoration="normal" x="0" y="0" text-anchor="end" dominant-baseline="central">600</text><g transform="rotate(0,0,0) translate(-32,-29) translate(32,5) rotate(0,0,0)"><text fill="#444444" stroke="none" font-family="Apex New" font-size="6pt" font-style="normal" font-weight="bold" text-decoration="normal" x="0" y="0" text-anchor="end" dominant-baseline="central">800</text><g transform="rotate(0,0,0) translate(-32,-5)"/></g></g></g></g></g></g></g></g></svg>